<?xml version="1.0" standalone="no"?>
<!DOCTYPE svg PUBLIC "-//W3C//DTD SVG 20010904//EN"
 "http://www.w3.org/TR/2001/REC-SVG-20010904/DTD/svg10.dtd">
<svg version="1.0" xmlns="http://www.w3.org/2000/svg"
 width="276.000000pt" height="276.000000pt" viewBox="0 0 276.000000 276.000000"
 preserveAspectRatio="xMidYMid meet">
<metadata>
Created by potrace 1.11, written by Peter Selinger 2001-2013
</metadata>
<g transform="translate(0.000000,276.000000) scale(0.100000,-0.100000)"
fill="#000000" stroke="none">
<path d="M500 2435 l0 -175 100 0 c82 0 100 -3 101 -15 0 -8 1 -35 1 -60 0
-25 -1 -52 -1 -60 -1 -13 -47 -15 -351 -15 l-350 0 2 -177 3 -178 73 1 72 0 0
-376 0 -376 -73 1 -72 0 -3 -177 -2 -178 350 0 c273 0 350 -3 351 -12 3 -43 1
-108 -4 -123 -5 -11 -17 -16 -34 -15 -16 1 -58 2 -95 1 l-68 -1 0 -175 0 -175
375 0 c293 0 375 3 376 13 1 6 2 84 3 172 l1 160 -100 5 -100 5 -1 73 -1 72
286 0 286 0 63 -123 c35 -67 93 -179 128 -250 l65 -127 165 0 164 0 0 250 0
250 148 0 147 0 128 128 127 128 0 474 0 474 -127 128 -128 128 -147 0 -148 0
0 75 0 75 100 0 100 0 0 175 0 175 -374 0 c-290 0 -375 -3 -378 -12 -2 -7 -4
-85 -4 -173 l1 -160 100 -5 100 -5 1 -72 1 -73 -286 0 -286 0 -126 248 -127
247 -266 3 -266 2 0 -175z m201 -712 c3 -172 0 -703 -4 -710 -3 -4 -47 -8 -99
-8 l-93 0 -2 375 -3 375 100 1 100 1 1 -34z m1151 28 c2 -9 5 -741 2 -739 -4
6 -95 182 -237 458 l-146 286 189 0 c105 0 191 -2 192 -5z m532 -20 l26 -24 0
-327 0 -327 -25 -23 c-22 -20 -36 -24 -100 -25 l-75 -2 0 377 0 376 74 0 c65
-1 78 -4 100 -25z m-1164 -296 c73 -143 152 -297 176 -342 24 -45 40 -84 36
-86 -6 -3 -342 -2 -367 2 -7 1 -10 127 -10 370 0 341 1 367 16 342 8 -14 75
-143 149 -286z"/>
<path d="M2373 270 c-32 -13 -45 -43 -32 -77 5 -15 16 -31 22 -35 36 -23 97
10 97 52 0 21 -41 71 -57 69 -4 0 -18 -4 -30 -9z m60 -31 c18 -25 12 -51 -14
-68 -43 -26 -92 42 -57 77 19 19 55 14 71 -9z"/>
<path d="M2370 215 c0 -19 5 -35 11 -35 5 0 7 5 4 10 -3 6 -2 10 4 10 5 0 13
-5 17 -12 10 -15 25 27 18 47 -4 8 -17 15 -30 15 -21 0 -24 -5 -24 -35z m37
-2 c-3 -3 -11 -2 -17 2 -9 6 -9 10 1 16 14 8 27 -7 16 -18z"/>
</g>
</svg>
